USFL
nRows=473
nColumns=2
inDegrees=yes
endheader
time	tib_ant_r	
0	 48.759502	
0.0332661	 48.747937	
0.0665323	 48.726063	
0.0997984	 48.710672	
0.133065	 48.720141	
0.166331	 48.727348	
0.199597	 48.720259	
0.232863	 48.714934	
0.266129	 48.687685	
0.299395	 48.683412	
0.332661	 48.676535	
0.365927	 48.686282	
0.399194	 48.691037	
0.43246	 48.693242	
0.465726	 48.706916	
0.498992	 48.707818	
0.532258	 48.701001	
0.565524	 48.692096	
0.59879	 48.685736	
0.632056	 48.672844	
0.665323	 48.679026	
0.698589	 48.673920	
0.731855	 48.680652	
0.765121	 48.682732	
0.798387	 48.689818	
0.831653	 48.681285	
0.864919	 48.683562	
0.898185	 48.689594	
0.931452	 48.703606	
0.964718	 48.699963	
0.997984	 48.710076	
1.03125	 48.714412	
1.06452	 48.722724	
1.09778	 48.727753	
1.13105	 48.732939	
1.16431	 48.731781	
1.19758	 48.710533	
1.23085	 48.715725	
1.26411	 48.732811	
1.29738	 48.744842	
1.33065	 48.742186	
1.36391	 48.713893	
1.39718	 48.690423	
1.43044	 48.695575	
1.46371	 48.721846	
1.49698	 48.729423	
1.53024	 48.724039	
1.56351	 48.733674	
1.59677	 48.743011	
1.63004	 48.738710	
1.66331	 48.740926	
1.69657	 48.755205	
1.72984	 48.766904	
1.7631	 48.768717	
1.79637	 48.796744	
1.82964	 48.781157	
1.8629	 48.780233	
1.89617	 48.790766	
1.92944	 48.784985	
1.9627	 48.769277	
1.99597	 48.758070	
2.02923	 48.760621	
2.0625	 48.756504	
2.09577	 48.777194	
2.12903	 48.779672	
2.1623	 48.745710	
2.19556	 48.734268	
2.22883	 48.743606	
2.2621	 48.770522	
2.29536	 48.758379	
2.32863	 48.778492	
2.3619	 48.803282	
2.39516	 48.797925	
2.42843	 48.796185	
2.46169	 48.788719	
2.49496	 48.790682	
2.52823	 48.801057	
2.56149	 48.810062	
2.59476	 48.816710	
2.62802	 48.808615	
2.66129	 48.792826	
2.69456	 48.792934	
2.72782	 48.772211	
2.76109	 48.758326	
2.79435	 48.774643	
2.82762	 48.777349	
2.86089	 48.792831	
2.89415	 48.797666	
2.92742	 48.823951	
2.96069	 48.827365	
2.99395	 48.830273	
3.02722	 48.831613	
3.06048	 48.843656	
3.09375	 48.838495	
3.12702	 48.847049	
3.16028	 48.854926	
3.19355	 48.826387	
3.22681	 48.830859	
3.26008	 48.848718	
3.29335	 48.858689	
3.32661	 48.838135	
3.35988	 48.824635	
3.39315	 48.842206	
3.42641	 48.826707	
3.45968	 48.851613	
3.49294	 48.873314	
3.52621	 48.850802	
3.55948	 48.855832	
3.59274	 48.862933	
3.62601	 48.889114	
3.65927	 48.916280	
3.69254	 48.891933	
3.72581	 48.894640	
3.75907	 48.889113	
3.79234	 48.907590	
3.8256	 48.924069	
3.85887	 48.930246	
3.89214	 48.919311	
3.9254	 48.918751	
3.95867	 48.912054	
3.99194	 48.897713	
4.0252	 48.896926	
4.05847	 48.910512	
4.09173	 48.921420	
4.125	 48.927358	
4.15827	 48.912553	
4.19153	 48.906973	
4.2248	 48.916827	
4.25806	 48.901148	
4.29133	 48.897555	
4.3246	 48.889352	
4.35786	 48.903549	
4.39113	 48.897740	
4.4244	 48.899221	
4.45766	 48.908377	
4.49093	 48.907671	
4.52419	 48.896152	
4.55746	 48.904003	
4.59073	 48.894414	
4.62399	 48.894182	
4.65726	 48.899768	
4.69052	 48.885295	
4.72379	 48.886007	
4.75706	 48.889069	
4.79032	 48.876849	
4.82359	 48.872227	
4.85685	 48.863865	
4.89012	 48.863203	
4.92339	 48.873183	
4.95665	 48.872612	
4.98992	 48.868600	
5.02319	 48.868509	
5.05645	 48.861048	
5.08972	 48.877560	
5.12298	 48.862907	
5.15625	 48.863228	
5.18952	 48.864105	
5.22278	 48.855337	
5.25605	 48.874892	
5.28931	 48.855406	
5.32258	 48.840848	
5.35585	 48.839249	
5.38911	 48.836511	
5.42238	 48.839555	
5.45565	 48.832721	
5.48891	 48.813072	
5.52218	 48.819711	
5.55544	 48.842138	
5.58871	 48.832298	
5.62198	 48.818951	
5.65524	 48.802531	
5.68851	 48.790721	
5.72177	 48.813871	
5.75504	 48.788154	
5.78831	 48.800760	
5.82157	 48.816328	
5.85484	 48.854983	
5.8881	 48.819373	
5.92137	 48.860403	
5.95464	 48.889691	
5.9879	 48.830248	
6.02117	 48.825098	
6.05444	 48.786921	
6.0877	 48.817175	
6.12097	 48.806866	
6.15423	 48.830378	
6.1875	 48.811643	
6.22077	 48.802975	
6.25403	 48.822164	
6.2873	 48.820240	
6.32056	 48.819471	
6.35383	 48.813151	
6.3871	 48.826171	
6.42036	 48.832324	
6.45363	 48.835899	
6.4869	 48.796699	
6.52016	 48.791284	
6.55343	 48.779576	
6.58669	 48.790128	
6.61996	 48.782058	
6.65323	 48.781921	
6.68649	 48.796968	
6.71976	 48.792173	
6.75302	 48.800468	
6.78629	 48.818717	
6.81956	 48.828453	
6.85282	 48.830234	
6.88609	 48.829452	
6.91935	 48.804644	
6.95262	 48.771291	
6.98589	 48.778667	
7.01915	 48.772991	
7.05242	 48.729731	
7.08569	 48.741012	
7.11895	 48.749074	
7.15222	 48.741266	
7.18548	 48.807656	
7.21875	 48.786339	
7.25202	 48.819258	
7.28528	 48.832407	
7.31855	 48.838742	
7.35181	 48.816596	
7.38508	 48.814300	
7.41835	 48.806060	
7.45161	 48.805322	
7.48488	 48.804315	
7.51815	 48.810088	
7.55141	 48.810482	
7.58468	 48.810151	
7.61794	 48.808734	
7.65121	 48.809971	
7.68448	 48.812565	
7.71774	 48.815372	
7.75101	 48.827746	
7.78427	 48.819596	
7.81754	 48.820864	
7.85081	 48.815438	
7.88407	 48.826298	
7.91734	 48.791135	
7.9506	 48.750765	
7.98387	 48.799106	
8.01714	 48.819560	
8.0504	 48.818739	
8.08367	 48.809248	
8.11694	 48.798981	
8.1502	 48.794508	
8.18347	 48.800131	
8.21673	 48.817454	
8.25	 48.805464	
8.28327	 48.821178	
8.31653	 48.818272	
8.3498	 48.819709	
8.38306	 48.824207	
8.41633	 48.833683	
8.4496	 48.830259	
8.48286	 48.820372	
8.51613	 48.819367	
8.5494	 48.808898	
8.58266	 48.815706	
8.61593	 48.808316	
8.64919	 48.812553	
8.68246	 48.797550	
8.71573	 48.823681	
8.74899	 48.842069	
8.78226	 48.848695	
8.81552	 48.844518	
8.84879	 48.857198	
8.88206	 48.844082	
8.91532	 48.857412	
8.94859	 48.854964	
8.98185	 48.853591	
9.01512	 48.852821	
9.04839	 48.856611	
9.08165	 48.856345	
9.11492	 48.842586	
9.14819	 48.843586	
9.18145	 48.860123	
9.21472	 48.854023	
9.24798	 48.856755	
9.28125	 48.861268	
9.31452	 48.880869	
9.34778	 48.880301	
9.38105	 48.877006	
9.41431	 48.906565	
9.44758	 48.886981	
9.48085	 48.880906	
9.51411	 48.884638	
9.54738	 48.873871	
9.58065	 48.870611	
9.61391	 48.871663	
9.64718	 48.866561	
9.68044	 48.876959	
9.71371	 48.890369	
9.74698	 48.905240	
9.78024	 48.904771	
9.81351	 48.899753	
9.84677	 48.902876	
9.88004	 48.904542	
9.91331	 48.914720	
9.94657	 48.906133	
9.97984	 48.913110	
10.0131	 48.909515	
10.0464	 48.914427	
10.0796	 48.908178	
10.1129	 48.904636	
10.1462	 48.904120	
10.1794	 48.901512	
10.2127	 48.909114	
10.246	 48.921823	
10.2792	 48.914425	
10.3125	 48.907973	
10.3458	 48.909566	
10.379	 48.916224	
10.4123	 48.925018	
10.4456	 48.921770	
10.4788	 48.919698	
10.5121	 48.929735	
10.5454	 48.924697	
10.5786	 48.920088	
10.6119	 48.925617	
10.6452	 48.922961	
10.6784	 48.939190	
10.7117	 48.941965	
10.745	 48.939898	
10.7782	 48.948825	
10.8115	 48.950772	
10.8448	 48.945286	
10.878	 48.948472	
10.9113	 48.945628	
10.9446	 48.940239	
10.9778	 48.945929	
11.0111	 48.938369	
11.0444	 48.947878	
11.0776	 48.954377	
11.1109	 48.950652	
11.1442	 48.938669	
11.1774	 48.949777	
11.2107	 48.912977	
11.244	 48.900051	
11.2772	 48.907126	
11.3105	 48.902277	
11.3437	 48.887608	
11.377	 48.889425	
11.4103	 48.887839	
11.4435	 48.882760	
11.4768	 48.884647	
11.5101	 48.891418	
11.5433	 48.890251	
11.5766	 48.906229	
11.6099	 48.907473	
11.6431	 48.904104	
11.6764	 48.895952	
11.7097	 48.876451	
11.7429	 48.880160	
11.7762	 48.886925	
11.8095	 48.892959	
11.8427	 48.882324	
11.876	 48.885543	
11.9093	 48.878981	
11.9425	 48.886235	
11.9758	 48.892570	
12.0091	 48.884661	
12.0423	 48.893613	
12.0756	 48.909470	
12.1089	 48.896453	
12.1421	 48.896842	
12.1754	 48.904979	
12.2087	 48.890817	
12.2419	 48.888284	
12.2752	 48.898282	
12.3085	 48.887236	
12.3417	 48.876988	
12.375	 48.880345	
12.4083	 48.867666	
12.4415	 48.865791	
12.4748	 48.862252	
12.5081	 48.860666	
12.5413	 48.860033	
12.5746	 48.885403	
12.6079	 48.887229	
12.6411	 48.877101	
12.6744	 48.876169	
12.7077	 48.865367	
12.7409	 48.878069	
12.7742	 48.885985	
12.8075	 48.892214	
12.8407	 48.856280	
12.874	 48.886143	
12.9073	 48.884658	
12.9405	 48.861484	
12.9738	 48.863985	
13.0071	 48.863378	
13.0403	 48.852991	
13.0736	 48.870288	
13.1069	 48.879897	
13.1401	 48.883630	
13.1734	 48.880034	
13.2067	 48.885574	
13.2399	 48.863169	
13.2732	 48.855194	
13.3065	 48.873912	
13.3397	 48.874932	
13.373	 48.860794	
13.4062	 48.869053	
13.4395	 48.866970	
13.4728	 48.869980	
13.506	 48.877351	
13.5393	 48.868648	
13.5726	 48.877862	
13.6058	 48.866694	
13.6391	 48.868282	
13.6724	 48.843347	
13.7056	 48.852486	
13.7389	 48.852292	
13.7722	 48.858700	
13.8054	 48.858954	
13.8387	 48.864587	
13.872	 48.874583	
13.9052	 48.882572	
13.9385	 48.881366	
13.9718	 48.880726	
14.005	 48.876798	
14.0383	 48.887389	
14.0716	 48.893933	
14.1048	 48.883586	
14.1381	 48.875761	
14.1714	 48.879483	
14.2046	 48.881560	
14.2379	 48.860494	
14.2712	 48.855350	
14.3044	 48.862740	
14.3377	 48.873372	
14.371	 48.869553	
14.4042	 48.865527	
14.4375	 48.871595	
14.4708	 48.870130	
14.504	 48.859846	
14.5373	 48.860139	
14.5706	 48.866166	
14.6038	 48.862162	
14.6371	 48.860927	
14.6704	 48.869916	
14.7036	 48.872640	
14.7369	 48.873276	
14.7702	 48.869898	
14.8034	 48.875545	
14.8367	 48.864256	
14.87	 48.852363	
14.9032	 48.842437	
14.9365	 48.835234	
14.9698	 48.851054	
15.003	 48.861310	
15.0363	 48.847055	
15.0696	 48.861673	
15.1028	 48.858873	
15.1361	 48.848654	
15.1694	 48.851270	
15.2026	 48.854779	
15.2359	 48.853068	
15.2692	 48.864725	
15.3024	 48.885416	
15.3357	 48.872700	
15.369	 48.885013	
15.4022	 48.877754	
15.4355	 48.885180	
15.4687	 48.867503	
15.502	 48.866509	
15.5353	 48.872738	
15.5685	 48.875815	
15.6018	 48.875701	
15.6351	 48.874648	
15.6683	 48.871505	
15.7016	 48.885104	
